<svg width="24" height="24" viewBox="0 0 24 24" fill="none" xmlns="http://www.w3.org/2000/svg">
<path d="M12 21.75C6.62391 21.75 2.25 17.3761 2.25 12C2.25 6.62391 6.62391 2.25 12 2.25C17.3761 2.25 21.75 6.62391 21.75 12C21.75 17.3761 17.3761 21.75 12 21.75ZM12 3.75C7.45312 3.75 3.75 7.45312 3.75 12C3.75 16.5469 7.45312 20.25 12 20.25C16.5469 20.25 20.25 16.5492 20.25 12C20.25 7.45078 16.5492 3.75 12 3.75Z" fill="#FF2D55"/>
<path d="M16.5001 17.2969C16.3955 17.2971 16.2921 17.2754 16.1965 17.2331C16.1009 17.1907 16.0152 17.1288 15.9451 17.0513L6.94506 7.20756C6.81409 7.05993 6.74659 6.86662 6.75719 6.66955C6.76779 6.47248 6.85564 6.28753 7.00169 6.1548C7.14775 6.02207 7.34023 5.95226 7.53741 5.96049C7.7346 5.96873 7.92058 6.05436 8.05506 6.19881L17.0551 16.0426C17.1528 16.1501 17.2171 16.2837 17.2403 16.4271C17.2636 16.5705 17.2446 16.7175 17.1858 16.8504C17.1271 16.9832 17.031 17.0962 16.9092 17.1754C16.7875 17.2547 16.6453 17.2969 16.5001 17.2969Z" fill="#FF2D55"/>
<path d="M16.5 11.6353V10.5197C16.5018 10.3374 16.4383 10.1605 16.3211 10.0209C16.2038 9.88126 16.0405 9.78818 15.8607 9.75844C15.3975 9.68906 15 10.0636 15 10.5141V11.6353C14.9994 11.8907 14.9506 12.1438 14.8561 12.3811C14.8433 12.4137 14.8398 12.4492 14.8461 12.4837C14.8524 12.5182 14.8682 12.5502 14.8918 12.5761L15.7913 13.5652C15.8011 13.576 15.8132 13.5843 15.8268 13.5896C15.8404 13.5949 15.8551 13.597 15.8696 13.5956C15.8841 13.5942 15.8981 13.5895 15.9105 13.5818C15.9228 13.574 15.9332 13.5635 15.9408 13.5511C16.3033 12.9776 16.4971 12.3137 16.5 11.6353Z" fill="#FF2D55"/>
<path d="M14.25 11.25V8.25C14.2483 7.6538 14.0106 7.0825 13.5891 6.66092C13.1675 6.23934 12.5962 6.00173 12 6C11.6137 6.00065 11.2341 6.10059 10.8975 6.2902C10.561 6.47982 10.2788 6.75275 10.0781 7.08281C10.0571 7.11746 10.048 7.15797 10.0519 7.19827C10.0559 7.23858 10.0728 7.27652 10.1001 7.30641L14.0573 11.6592C14.0691 11.6723 14.0843 11.6819 14.1013 11.6867C14.1182 11.6916 14.1362 11.6916 14.1531 11.6867C14.1701 11.6818 14.1853 11.6722 14.197 11.6591C14.2088 11.6459 14.2166 11.6297 14.2195 11.6123C14.2395 11.4926 14.2497 11.3714 14.25 11.25Z" fill="#FF2D55"/>
<path d="M11.5579 13.3688L9.84886 11.4886C9.84219 11.4811 9.83327 11.4759 9.82341 11.4738C9.81356 11.4717 9.80329 11.4729 9.79414 11.4771C9.78499 11.4813 9.77743 11.4883 9.7726 11.4972C9.76776 11.506 9.7659 11.5161 9.76729 11.5261C9.82578 11.987 10.0247 12.4187 10.3371 12.7625C10.6495 13.1064 11.0602 13.3457 11.5134 13.448C11.5235 13.4507 11.5341 13.45 11.5438 13.446C11.5534 13.4419 11.5614 13.4348 11.5665 13.4257C11.5716 13.4166 11.5735 13.4061 11.572 13.3958C11.5704 13.3855 11.5655 13.376 11.5579 13.3688Z" fill="#FF2D55"/>
<path d="M13.4789 16.5H12.75V15.6684C12.9487 15.6332 13.1449 15.5853 13.3374 15.525C13.3525 15.5203 13.3662 15.5119 13.3772 15.5006C13.3882 15.4892 13.3961 15.4753 13.4003 15.46C13.4044 15.4448 13.4047 15.4287 13.401 15.4134C13.3973 15.398 13.3897 15.3838 13.3791 15.3722L12.3914 14.2851C12.3722 14.2637 12.3482 14.2471 12.3215 14.2366C12.2947 14.2261 12.2658 14.222 12.2372 14.2247C12.158 14.2317 12.0783 14.2359 12 14.2359C10.3125 14.2359 9.00001 12.8381 9.00001 11.6353V10.5187C9.00188 10.3206 8.92653 10.1296 8.78994 9.98607C8.65335 9.84256 8.46625 9.75788 8.2683 9.74997C8.16812 9.74695 8.06837 9.76414 7.975 9.80053C7.88162 9.83692 7.79653 9.89175 7.72482 9.96176C7.65311 10.0318 7.59624 10.1155 7.55762 10.208C7.51899 10.3005 7.4994 10.3998 7.50001 10.5V11.6353C7.50001 12.7303 8.01283 13.7733 8.9433 14.5725C9.60079 15.1368 10.3972 15.5152 11.25 15.6684V16.5H10.5211C10.1175 16.5 9.77111 16.8103 9.75095 17.2139C9.74607 17.3153 9.76182 17.4166 9.79726 17.5118C9.8327 17.6069 9.88708 17.6939 9.95712 17.7674C10.0272 17.8409 10.1114 17.8994 10.2047 17.9394C10.298 17.9793 10.3985 18 10.5 18H13.5C13.6016 18.0001 13.7022 17.9796 13.7956 17.9396C13.889 17.8997 13.9734 17.8412 14.0435 17.7677C14.1137 17.6942 14.1681 17.6072 14.2036 17.512C14.2391 17.4168 14.2549 17.3154 14.25 17.2139C14.2303 16.8103 13.8825 16.5 13.4789 16.5Z" fill="#FF2D55"/>
</svg>
