<svg width="24" height="24" viewBox="0 0 24 24" fill="none" xmlns="http://www.w3.org/2000/svg">
<path fill-rule="evenodd" clip-rule="evenodd" d="M21.1406 6.11155C21.369 6.01002 21.6191 5.96716 21.8683 5.98687C22.1174 6.00658 22.3577 6.08823 22.5673 6.2244C22.7769 6.36058 22.9491 6.54696 23.0683 6.76662C23.1875 6.98628 23.25 7.23225 23.25 7.48219V16.5178C23.25 16.7678 23.1875 17.0137 23.0683 17.2334C22.9491 17.453 22.7769 17.6394 22.5673 17.7756C22.3577 17.9118 22.1174 17.9934 21.8683 18.0131C21.6191 18.0328 21.369 17.99 21.1406 17.8884C21.096 17.8686 21.0535 17.8445 21.0136 17.8164L17.1366 15.0874C16.94 14.9489 16.7795 14.7653 16.6687 14.5519C16.5579 14.3385 16.5001 14.1016 16.5 13.8611V10.1389C16.5001 9.89845 16.5579 9.66153 16.6687 9.44812C16.7795 9.23471 16.9399 9.05106 17.1366 8.91265L21.0136 6.18358C21.0535 6.1555 21.096 6.13137 21.1406 6.11155ZM21.75 7.49958V16.5004L18 13.8608V10.1392L21.75 7.49958Z" fill="white"/>
<path fill-rule="evenodd" clip-rule="evenodd" d="M3.93642 5.25H12.5862L12.5873 5.25C13.4253 5.25259 14.2283 5.58664 14.8208 6.17919C15.4134 6.77175 15.7474 7.57468 15.75 8.41268L15.75 8.41384V15.5636L15.75 15.5647C15.7476 16.4087 15.4112 17.2175 14.8144 17.8144C14.2175 18.4112 13.4087 18.7476 12.5647 18.75L12.5636 18.75H3.93642L3.93535 18.75C3.09129 18.7476 2.28249 18.4112 1.68565 17.8144C1.0888 17.2175 0.752427 16.4087 0.750003 15.5647L0.75 15.5636V8.43642L0.750003 8.43535C0.752427 7.59129 1.0888 6.78249 1.68565 6.18565C2.28249 5.5888 3.09129 5.25243 3.93535 5.25L3.93642 5.25ZM3.93868 6.75C3.4913 6.75154 3.06267 6.92994 2.74631 7.24631C2.42994 7.56267 2.25154 7.9913 2.25 8.43868V15.5613C2.25154 16.0087 2.42994 16.4373 2.74631 16.7537C3.06269 17.0701 3.49134 17.2485 3.93874 17.25H12.5613C13.0087 17.2485 13.4373 17.0701 13.7537 16.7537C14.0701 16.4373 14.2485 16.0087 14.25 15.5613V8.41608C14.2483 7.97475 14.0722 7.55195 13.7601 7.23985C13.448 6.92771 13.0251 6.75164 12.5837 6.75H3.93868Z" fill="white"/>
</svg>
