<svg width="24" height="24" viewBox="0 0 24 24" fill="none" xmlns="http://www.w3.org/2000/svg">
<path d="M19.1564 13.9936C18.9615 13.9945 18.7707 13.9376 18.6082 13.83C18.4458 13.7224 18.3189 13.569 18.2436 13.3892C18.1684 13.2094 18.1482 13.0113 18.1857 12.8201C18.2231 12.6288 18.3165 12.453 18.454 12.3148C18.5915 12.1767 18.7669 12.0825 18.9579 12.0441C19.149 12.0058 19.3472 12.025 19.5273 12.0993C19.7075 12.1737 19.8615 12.2999 19.9699 12.4618C20.0782 12.6238 20.1361 12.8143 20.1361 13.0092C20.137 13.1384 20.1124 13.2664 20.0635 13.3859C20.0147 13.5055 19.9426 13.6142 19.8515 13.7057C19.7604 13.7972 19.6521 13.8698 19.5328 13.9192C19.4135 13.9686 19.2855 13.9939 19.1564 13.9936ZM14.3672 13.9936C14.1723 13.9945 13.9815 13.9376 13.819 13.83C13.6565 13.7224 13.5296 13.569 13.4544 13.3892C13.3792 13.2094 13.359 13.0113 13.3965 12.8201C13.4339 12.6288 13.5273 12.453 13.6648 12.3148C13.8023 12.1767 13.9776 12.0825 14.1687 12.0441C14.3598 12.0058 14.558 12.025 14.7381 12.0993C14.9183 12.1737 15.0723 12.2999 15.1806 12.4618C15.289 12.6238 15.3469 12.8143 15.3469 13.0092C15.3479 13.1384 15.3232 13.2664 15.2744 13.386C15.2256 13.5056 15.1535 13.6143 15.0624 13.7058C14.9713 13.7974 14.863 13.8699 14.7436 13.9193C14.6243 13.9687 14.4963 13.994 14.3672 13.9936ZM21.4964 19.5652C23.0203 18.4725 24 16.8342 24 14.977C24 11.6452 20.7891 8.91375 16.762 8.91375C12.735 8.91375 9.52359 11.6452 9.52359 14.977C9.52359 18.3089 12.7345 21.0398 16.762 21.0398C17.5781 21.0398 18.3947 20.9306 19.102 20.7117C19.2188 20.6714 19.2652 20.6569 19.3195 20.6569C19.4539 20.6601 19.5851 20.6978 19.7006 20.7666L21.2812 21.6952C21.3324 21.722 21.3874 21.7405 21.4444 21.75C21.501 21.7462 21.5543 21.7219 21.5944 21.6817C21.6345 21.6415 21.6586 21.5882 21.6623 21.5316C21.6587 21.4699 21.6466 21.409 21.6263 21.3506C21.607 21.2822 21.3919 20.6006 21.2812 20.1661C21.2711 20.1125 21.2659 20.058 21.2658 20.0034C21.2664 19.9169 21.2881 19.8317 21.3289 19.7554C21.3697 19.679 21.4285 19.6138 21.5002 19.5652" fill="#58D46B"/>
<path d="M11.5373 8.36766C11.2331 8.36766 10.9414 8.24681 10.7263 8.0317C10.5112 7.81659 10.3903 7.52484 10.3903 7.22062C10.3903 6.91641 10.5112 6.62466 10.7263 6.40955C10.9414 6.19444 11.2331 6.07359 11.5373 6.07359C12.1359 6.07359 12.6802 6.61969 12.6802 7.22062C12.7345 7.82156 12.1903 8.36766 11.5373 8.36766ZM5.76891 8.36766C5.54195 8.36849 5.31984 8.30198 5.1307 8.17653C4.94156 8.05108 4.79388 7.87235 4.70637 7.66294C4.61885 7.45353 4.59542 7.22286 4.63905 7.00014C4.68268 6.77741 4.7914 6.57263 4.95146 6.41172C5.11152 6.25081 5.31572 6.141 5.53821 6.09618C5.7607 6.05137 5.99149 6.07357 6.20136 6.15997C6.41123 6.24638 6.59075 6.3931 6.7172 6.58157C6.84365 6.77004 6.91135 6.99179 6.91172 7.21875C6.91049 7.52186 6.78983 7.81226 6.5759 8.02698C6.36196 8.24171 6.072 8.36344 5.76891 8.36578M8.65313 2.25C3.86391 2.25 0 5.47266 0 9.51562C0 11.7005 1.14281 13.6669 2.99297 14.978C3.15656 15.0862 3.1875 15.3281 3.1875 15.4219C3.19142 15.4934 3.1809 15.565 3.15656 15.6323C2.99297 16.1784 2.78438 17.0625 2.77547 17.1094C2.76656 17.1562 2.72109 17.2734 2.72109 17.3278C2.71877 17.3642 2.72421 17.4006 2.73703 17.4347C2.74985 17.4689 2.76977 17.4999 2.79548 17.5257C2.82118 17.5515 2.85208 17.5716 2.88612 17.5846C2.92017 17.5976 2.95659 17.6032 2.99297 17.6011C3.05135 17.5974 3.10775 17.5785 3.15656 17.5463L5.0625 16.4531C5.22609 16.3439 5.33484 16.3439 5.49797 16.3439C5.59131 16.3453 5.68361 16.3637 5.77031 16.3983C6.64078 16.6716 7.62047 16.7808 8.60016 16.7808H9.09C8.91157 16.1966 8.81981 15.5893 8.81766 14.9784C8.81766 11.3184 12.3553 8.36906 16.7091 8.36906H17.1989C16.5984 4.92656 13.0069 2.25 8.65313 2.25Z" fill="#58D46B"/>
</svg>
